<svg width="27.06" height="27.06" viewBox="0 0 41 41" fill="none" xmlns="http://www.w3.org/2000/svg">
<rect x="0.936035" y="0.447754" width="40.0042" height="40" rx="20" fill="#FF542F"/>
<path d="M13.8696 10.7041C13.1996 10.7041 12.6324 11.0955 12.357 11.6594C11.2823 11.9579 10.473 12.9365 10.473 14.1008V22.0617L10.6853 22.3005C10.6853 22.3005 12.6854 24.6424 15.568 25.0603V26.8382C15.568 29.6411 17.86 31.9332 20.6629 31.9332C23.4659 31.9332 25.7579 29.6411 25.7579 26.8382V22.5924C25.7579 21.6437 26.5076 20.8941 27.4563 20.8941C28.4049 20.8941 29.1546 21.6437 29.1546 22.5924V22.7516C28.1727 23.1066 27.4563 24.042 27.4563 25.1399C27.4563 26.5364 28.6073 27.6874 30.0038 27.6874C31.4002 27.6874 32.5513 26.5364 32.5513 25.1399C32.5513 24.042 31.8348 23.1066 30.8529 22.7516V22.5924C30.8529 20.7249 29.3238 19.1958 27.4563 19.1958C25.5888 19.1958 24.0596 20.7249 24.0596 22.5924V26.8382C24.0596 28.7223 22.547 30.2349 20.6629 30.2349C18.7789 30.2349 17.2663 28.7223 17.2663 26.8382V25.0603C20.1488 24.6424 22.149 22.3005 22.149 22.3005L22.3613 22.0617V14.1008C22.3613 12.9365 21.5519 11.9579 20.4772 11.6594C20.2019 11.0955 19.6347 10.7041 18.9646 10.7041C18.0259 10.7041 17.2663 11.4637 17.2663 12.4024C17.2663 13.3412 18.0259 14.1008 18.9646 14.1008C19.5219 14.1008 20.0095 13.8288 20.318 13.4108C20.5303 13.5634 20.6629 13.8122 20.6629 14.1008V21.3717C20.3578 21.6802 18.55 23.4416 16.4171 23.4416C14.2843 23.4416 12.4765 21.6802 12.1713 21.3717V14.1008C12.1713 13.8122 12.304 13.5634 12.5163 13.4108C12.8248 13.8288 13.3124 14.1008 13.8696 14.1008C14.8083 14.1008 15.568 13.3412 15.568 12.4024C15.568 11.4637 14.8083 10.7041 13.8696 10.7041ZM30.0038 24.2907C30.4814 24.2907 30.8529 24.6623 30.8529 25.1399C30.8529 25.6176 30.4814 25.9891 30.0038 25.9891C29.5261 25.9891 29.1546 25.6176 29.1546 25.1399C29.1546 24.6623 29.5261 24.2907 30.0038 24.2907Z" fill="#FAF8F5"/>
</svg>
