<svg width="27.06" height="27.06" viewBox="0 0 48 48" fill="none" xmlns="http://www.w3.org/2000/svg">
<rect x="0.333008" y="0.565674" width="47.11" height="47.1051" rx="23.5525" fill="#FF542F"/>
<path d="M23.8882 10.1182C16.7202 10.1182 10.8882 15.9502 10.8882 23.1182C10.8882 30.2861 16.7202 36.1182 23.8882 36.1182C31.0562 36.1182 36.8882 30.2861 36.8882 23.1182C36.8882 15.9502 31.0562 10.1182 23.8882 10.1182ZM23.8882 12.1182C29.9741 12.1182 34.8882 17.0322 34.8882 23.1182C34.8882 25.8447 33.8999 28.3252 32.2632 30.2432L16.9194 14.5869C18.814 13.0361 21.2397 12.1182 23.8882 12.1182ZM15.5132 15.9932L30.8569 31.6494C28.9624 33.2002 26.5366 34.1182 23.8882 34.1182C17.8022 34.1182 12.8882 29.2041 12.8882 23.1182C12.8882 20.3916 13.8765 17.9111 15.5132 15.9932Z" fill="#FAF8F5"/>
</svg>
