<svg width="27.06" height="27.06" viewBox="0 0 41 41" fill="none" xmlns="http://www.w3.org/2000/svg">
<rect x="0.441895" y="0.447754" width="40.0042" height="40" rx="20" fill="#FF542F"/>
<path d="M22.1421 8.55933V11.956H14.4996C12.1644 11.956 10.2538 13.8666 10.2538 16.2018V24.6935H11.9521V16.2018C11.9521 14.7854 13.0832 13.6543 14.4996 13.6543C15.916 13.6543 17.0471 14.7854 17.0471 16.2018V17.051H13.6504V24.6935H17.0471V25.5426H8.55542V27.241H20.4437V30.6376H22.1421V27.241H30.6337V16.2018C30.6337 13.8666 28.7231 11.956 26.3879 11.956H24.6896V13.6543H26.3879C27.8043 13.6543 28.9354 14.7854 28.9354 16.2018V25.5426H18.7454V16.2018C18.7454 15.2399 18.4137 14.3675 17.8697 13.6543H22.1421V16.2018H23.8404V10.2577H25.5387V8.55933H22.1421Z" fill="#FAF8F5"/>
</svg>
