<svg width="27.06" height="27.06" viewBox="0 0 48 48" fill="none" xmlns="http://www.w3.org/2000/svg">
<rect x="0.504395" y="0.565674" width="47.11" height="47.1051" rx="23.5525" fill="#FF542F"/>
<path d="M24.2778 10.8369L20.8403 13.5869L17.2153 13.4307L16.4028 13.3682L16.2153 14.1494L15.3091 17.6182L12.3091 19.5869L11.6528 20.0244L11.9341 20.7744L13.2153 24.1182L11.9341 27.4619L11.6528 28.2119L12.3091 28.6494L15.3091 30.6182L16.2153 34.0869L16.4028 34.8682L17.2153 34.8057L20.8403 34.6494L24.2778 37.3994L27.7153 34.6494L31.3403 34.8057L32.1528 34.8682L32.3403 34.0869L33.2466 30.6182L36.2466 28.6494L36.9028 28.2119L36.6216 27.4619L35.3403 24.1182L36.6216 20.7744L36.9028 20.0244L36.2466 19.5869L33.2466 17.6182L32.3403 14.1494L32.1528 13.3682L31.3403 13.4307L27.7153 13.5869L24.2778 10.8369ZM24.2778 13.3994L26.7466 15.3994L27.0591 15.6494L27.4341 15.6182L30.6216 15.4619L31.4028 18.4619L31.4966 18.8369L31.8091 19.0557L34.4653 20.8057L33.3403 23.7744L33.2153 24.1182L33.3403 24.4619L34.4653 27.4307L31.8091 29.1807L31.4966 29.3994L31.4028 29.7744L30.6216 32.7744L27.4341 32.6182L27.0591 32.5869L26.7466 32.8369L24.2778 34.8369L21.8091 32.8369L21.4966 32.5869L21.1216 32.6182L17.9341 32.7744L17.1528 29.7744L17.0591 29.3994L16.7466 29.1807L14.0903 27.4307L15.2153 24.4619L15.3403 24.1182L15.2153 23.7744L14.0903 20.8057L16.7466 19.0557L17.0591 18.8369L17.1528 18.4619L17.9341 15.4619L21.1216 15.6182L21.4966 15.6494L21.8091 15.3994L24.2778 13.3994ZM29.5591 20.3994L23.2778 26.6807L19.9966 23.3994L18.5591 24.8369L22.5591 28.8369L23.2778 29.5244L23.9966 28.8369L30.9966 21.8369L29.5591 20.3994Z" fill="#FAF8F5"/>
</svg>
