<svg width="27.06" height="27.06" viewBox="0 0 48 48" fill="none" xmlns="http://www.w3.org/2000/svg">
<rect x="0.41864" y="0.565674" width="47.11" height="47.1051" rx="23.5525" fill="#FF542F"/>
<path d="M34.9999 12.2302C26.1969 12.2302 21.7985 17.0248 19.6855 19.3298L16.6367 22.406C14.9357 24.105 13.9999 26.3643 13.9999 28.7693V30.2302L16.0273 28.2029C16.1593 26.5469 16.8628 25.006 18.0468 23.822L21.1601 20.6814C22.9961 18.6794 26.7285 14.6087 33.9745 14.2537C33.7531 18.775 32.0858 21.927 30.3769 24.1052L26.9999 25.2302H29.4179C28.7236 25.9866 28.0665 26.5953 27.5488 27.0701L26.5683 28.0408L22.9999 29.2302H25.3671L24.4101 30.1775C23.0881 31.4995 21.3309 32.2283 19.4609 32.2283H17.416L26.707 22.9373L25.2929 21.5232L11.9999 34.8162L13.414 36.2302L15.416 34.2283H19.4609C21.8649 34.2283 24.1251 33.2916 25.8281 31.5876L28.8984 28.5427C31.2034 26.4317 35.9999 22.0342 35.9999 13.2302V12.2302H34.9999Z" fill="#FAF8F5"/>
</svg>
