<svg width="27.06" height="27.06" viewBox="0 0 48 48" fill="none" xmlns="http://www.w3.org/2000/svg">
<rect x="0.678711" y="0.565674" width="47.11" height="47.1051" rx="23.5525" fill="#FF542F"/>
<path d="M33.0051 10.0713L31.9739 10.54C28.7942 11.9424 24.2004 12.4697 20.2864 13.8525C18.3293 14.5439 16.5168 15.4658 15.1614 16.9463C13.8059 18.4268 12.9739 20.4658 12.9739 23.0713C12.9739 25.7666 14.5598 27.6143 16.0364 28.665C16.6653 29.1143 17.2747 29.4385 17.7864 29.665C17.1692 30.8096 16.7122 31.8408 16.4114 32.7275C15.8645 34.3252 15.7786 35.5752 15.8176 36.4775C15.8567 37.3799 15.9739 37.9971 15.9739 37.9775L17.9739 38.165C18.0364 37.4424 17.8489 37.0635 17.8176 36.3838C17.7864 35.7041 17.845 34.7705 18.3176 33.3838C19.2629 30.6143 21.884 26.0557 28.6926 18.7588L27.2551 17.3838C23.1731 21.7588 20.5364 25.1689 18.8176 27.915C18.3801 27.7393 17.7942 27.4697 17.1926 27.04C16.0325 26.2158 14.9739 25.0088 14.9739 23.0713C14.9739 20.8682 15.6028 19.415 16.6301 18.29C17.6575 17.165 19.1536 16.3604 20.9426 15.7275C24.1809 14.583 28.1887 14.0049 31.6301 12.7275C31.9504 13.9424 32.9739 18.1025 32.9739 24.6025C32.9739 28.29 32.1106 30.4033 31.0989 31.5713C30.0872 32.7393 28.8684 33.0713 27.7864 33.0713C26.7083 33.0713 25.5442 32.5205 24.5364 31.8213C23.5286 31.1221 22.8333 30.3916 22.1301 29.9463L21.0676 31.6338C21.2473 31.7471 22.2434 32.6689 23.4114 33.4775C24.5793 34.2861 26.0598 35.0713 27.7864 35.0713C29.3254 35.0713 31.2083 34.5283 32.6301 32.8838C34.052 31.2393 34.9739 28.5986 34.9739 24.6025C34.9739 16.7822 33.3176 11.165 33.3176 11.165L33.0051 10.0713Z" fill="#FAF8F5"/>
</svg>
