<svg width="41" height="41" viewBox="0 0 41 41" fill="none" xmlns="http://www.w3.org/2000/svg">
<rect x="0.0644531" y="0.447754" width="40.0042" height="40" rx="20" fill="#FF542F"/>
<path d="M20.0664 7.52588C13.4713 7.52588 8.10547 12.8917 8.10547 19.4868C8.10547 26.0819 13.4713 31.4478 20.0664 31.4478C26.6615 31.4478 32.0273 26.0819 32.0273 19.4868C32.0273 12.8917 26.6615 7.52588 20.0664 7.52588ZM20.0664 9.36602C20.3774 9.36602 20.6829 9.38514 20.9865 9.41275V11.2062H19.1463L18.2263 13.9664H17.3062V14.8865H21.9066L22.8266 15.8065H23.7467V16.7266L22.8266 17.6467L19.1463 16.7266L15.466 19.4868V22.247L17.3062 24.0872H20.0664V26.3874L20.9865 28.6875H21.9066L24.6668 25.0072V24.0872L25.5868 22.247V21.327H24.6668L23.7467 19.4868L24.6668 18.5667L26.0469 19.4868L28.3471 18.5667V17.6467H30.0111C30.1215 18.2447 30.1872 18.8575 30.1872 19.4868C30.1872 25.0671 25.6466 29.6076 20.0664 29.6076C14.4862 29.6076 9.94561 25.0671 9.94561 19.4868C9.94561 13.9066 14.4862 9.36602 20.0664 9.36602Z" fill="#FAF8F5"/>
</svg>
