<svg width="27.06" height="27.06" viewBox="0 0 48 48" fill="none" xmlns="http://www.w3.org/2000/svg">
<rect x="0.247681" y="0.565674" width="47.11" height="47.1051" rx="23.5525" fill="#FF542F"/>
<path d="M24.4976 10.3994C23.3528 10.3994 22.1995 10.9591 21.5126 12.0276L18.4596 17.048L20.3253 18.1674L23.3782 13.181C23.9634 12.3075 25.0743 12.2863 25.651 13.181L29.0431 18.6084L27.4149 19.5582L32.4352 22.3736V16.607L30.8748 17.5229L27.4827 12.0276C26.7958 10.9591 25.6425 10.3994 24.4976 10.3994ZM18.4257 19.219L13.5411 22.0344L14.8979 22.8485L12.1164 27.4279L12.0824 27.394C12.0697 27.4152 12.0952 27.4406 12.0824 27.4618C10.4839 29.883 12.3284 33.2285 15.271 33.2285H21.2412V31.0575H15.271C13.8972 31.0575 13.1594 29.7006 13.8803 28.6491L13.9142 28.6152V28.5812L16.7636 23.9679L18.4257 24.9856V19.219ZM34.3348 23.086L32.4691 24.2393L35.1828 28.5812C35.8782 29.7642 35.0896 31.0575 33.826 31.0575H27.7541V28.8865L22.4284 32.143L27.7541 35.3994V33.2285H33.826C36.6881 33.2285 38.5241 29.972 37.0485 27.4618V27.4279L34.3348 23.086Z" fill="#FAF8F5"/>
</svg>
