<svg width="27.06" height="27.06" viewBox="0 0 41 41" fill="none" xmlns="http://www.w3.org/2000/svg">
<rect x="0.570312" y="0.447754" width="40.0042" height="40" rx="20" fill="#FF542F"/>
<path d="M20.9998 8.52588C17.1019 8.52588 13.9229 11.705 13.9229 15.6028C13.9229 19.2 16.6354 22.1821 20.1152 22.6244V26.2182H16.5767V27.9874H20.1152V31.5259H21.8844V27.9874H25.4229V26.2182H21.8844V22.6244C25.3641 22.1821 28.0767 19.2 28.0767 15.6028C28.0767 11.705 24.8976 8.52588 20.9998 8.52588ZM20.9998 10.2951C23.9404 10.2951 26.3075 12.6621 26.3075 15.6028C26.3075 18.5435 23.9404 20.9105 20.9998 20.9105C18.0591 20.9105 15.6921 18.5435 15.6921 15.6028C15.6921 12.6621 18.0591 10.2951 20.9998 10.2951Z" fill="#FAF8F5"/>
</svg>
